<svg width="61" height="61" viewBox="0 0 61 61" fill="none" xmlns="http://www.w3.org/2000/svg">
<path d="M31 3C31 3 21.0578 4.15398 15.4394 14.3462C9.82108 24.5384 8.32279 32.808 9.25918 39.3462C12.4428 57.423 31 58 31 58V3Z" fill="#97CF43"/>
<path d="M31 3C31 3 40.9422 4.15398 46.5606 14.3462C52.1789 24.5384 53.6772 32.808 52.7408 39.3462C49.5572 57.423 31 58 31 58V3Z" fill="#30C03F"/>
<path d="M31 27C24.9248 27 20 31.9248 20 38C20 44.0752 24.9248 49 31 49V27Z" fill="#F4F995"/>
<path d="M31 27C37.0752 27 42 31.9248 42 38C42 44.0752 37.0752 49 31 49V27Z" fill="#EAEA86"/>
<path d="M31 31C27.134 31 24 34.134 24 38C24 41.866 27.134 45 31 45V31Z" fill="#664823"/>
<path d="M31 31C34.866 31 38 34.134 38 38C38 41.866 34.866 45 31 45V31Z" fill="#563818"/>
</svg>
